<?xml version="1.0" encoding="UTF-8" standalone="no"?>
<!DOCTYPE svg PUBLIC "-//W3C//DTD SVG 1.1//EN" "http://www.w3.org/Graphics/SVG/1.1/DTD/svg11.dtd">
<svg width="100%" height="100%" viewBox="0 0 491 491" version="1.1" xmlns="http://www.w3.org/2000/svg" xmlns:xlink="http://www.w3.org/1999/xlink" xml:space="preserve" xmlns:serif="http://www.serif.com/" style="fill-rule:evenodd;clip-rule:evenodd;stroke-linejoin:round;stroke-miterlimit:2;">
    <path d="M245.3,0C109.8,0 0,109.8 0,245.3C0,380.8 109.8,490.6 245.3,490.6C380.8,490.6 490.6,380.8 490.6,245.3C490.5,109.9 380.7,0.1 245.3,0Z" style="fill:rgb(76,166,154);fill-rule:nonzero;"/>
    <path d="M373.3,192L249.7,192L268.9,172.8C287.8,153.9 287.8,123.3 268.9,104.4C249.7,86.2 219.6,86.2 200.5,104.5L82.2,222.7C69.7,235.2 69.7,255.5 82.2,267.9L200.5,386.1C220,400.6 245.4,403.5 265.5,386C285.6,368.4 281.1,344.1 272.2,323C270.8,321.3 270.4,319.3 268.8,317.9L249.6,298.7L373.3,298.7C402.8,298.7 426.6,274.8 426.6,245.4C426.6,215.8 402.8,192 373.3,192Z" style="fill:rgb(250,250,250);fill-rule:nonzero;"/>
    <g transform="matrix(1.01696,0,0,1.01937,-2.23511,-4.7585)">
        <path d="M234.6,400.4C221.8,400.4 209.5,395.3 200.5,386.1L82.2,267.9C69.7,255.4 69.7,235.1 82.2,222.7L200.5,104.5C219.6,86.2 249.8,86.2 268.9,104.5C287.8,123.4 287.8,154 268.9,172.9L249.7,192.1L373.3,192.1C402.8,192.1 426.6,216 426.6,245.4C426.6,274.9 402.7,298.7 373.3,298.7L249.7,298.7L268.9,317.9C287.8,336.8 287.8,367.4 268.9,386.3C259.9,395.3 247.6,400.4 234.8,400.5L234.6,400.4ZM234.6,111.6C227.4,111.6 220.5,114.4 215.4,119.5L97.3,237.7C93.1,241.9 93.1,248.6 97.3,252.8L215.5,371.1C226.2,381.3 243,381.3 253.8,371.1C264.4,360.6 264.4,343.4 253.8,332.9L216.5,295.6C212.3,291.5 212.2,284.7 216.4,280.5C218.4,278.4 221.2,277.3 224.2,277.3L373.3,277.3C391,277.3 405.3,263 405.3,245.3C405.3,227.6 391,213.3 373.3,213.3L224,213.3C218.1,213.3 213.3,208.5 213.3,202.7C213.3,199.9 214.4,197.1 216.4,195.1L253.8,157.9C264.4,147.3 264.3,130.2 253.8,119.6C248.7,114.5 241.8,111.7 234.6,111.6Z" style="fill:rgb(76,166,154);fill-rule:nonzero;"/>
    </g>
</svg>
