<?xml version="1.0" encoding="UTF-8" standalone="no"?>
<!DOCTYPE svg PUBLIC "-//W3C//DTD SVG 1.1//EN" "http://www.w3.org/Graphics/SVG/1.1/DTD/svg11.dtd">
<svg width="100%" height="100%" viewBox="0 0 512 512" version="1.1" xmlns="http://www.w3.org/2000/svg" xmlns:xlink="http://www.w3.org/1999/xlink" xml:space="preserve" xmlns:serif="http://www.serif.com/" style="fill-rule:evenodd;clip-rule:evenodd;stroke-linejoin:round;stroke-miterlimit:2;">
    <g>
        <g>
            <path d="M437.126,74.939C337.3,-24.887 174.819,-24.887 74.993,74.939C26.637,123.314 0,187.617 0,256.005C0,324.393 26.637,388.696 74.993,437.052C124.916,486.975 190.488,511.926 256.059,511.926C321.63,511.926 387.203,486.975 437.125,437.052C536.951,337.226 536.951,174.784 437.126,74.939ZM409.08,409.006C324.705,493.381 187.413,493.381 103.038,409.006C62.18,368.148 39.668,313.802 39.668,256.005C39.668,198.208 62.18,143.862 103.038,102.984C187.413,18.609 324.705,18.629 409.08,102.984C493.435,187.359 493.435,324.651 409.08,409.006Z" style="fill:rgb(0,128,0);fill-rule:nonzero;"/>
            <g transform="matrix(0.509766,0,0,0.509766,132,127.373)">
                <g>
                    <g>
                        <g>
                            <g>
                                <g>
                                    <path d="M474.644,74.27C449.391,45.616 414.358,29.836 376,29.836C322.052,29.836 287.897,62.056 268.745,89.086C263.776,96.1 259.549,103.133 256,109.751C252.451,103.133 248.225,96.1 243.255,89.086C224.103,62.056 189.948,29.836 136,29.836C97.642,29.836 62.609,45.617 37.355,74.271C13.267,101.605 0,138.213 0,177.351C0,219.954 16.633,259.579 52.345,302.051C84.262,340.011 130.179,379.139 183.35,424.448C203.163,441.332 223.652,458.792 245.465,477.877L246.12,478.451C248.948,480.927 252.474,482.164 256,482.164C259.526,482.164 263.052,480.926 265.88,478.451L266.535,477.877C288.348,458.792 308.837,441.333 328.653,424.446C381.821,379.14 427.738,340.012 459.655,302.051C495.367,259.578 512,219.954 512,177.351C512,138.213 498.733,101.605 474.644,74.27ZM309.193,401.614C292.113,416.168 274.535,431.147 256,447.26C237.466,431.149 219.887,416.169 202.804,401.612C98.745,312.939 30,254.358 30,177.351C30,145.521 40.605,115.957 59.862,94.106C79.34,72.007 106.379,59.836 136,59.836C177.129,59.836 203.716,85.174 218.776,106.43C232.285,125.494 239.334,144.712 241.738,152.089C243.749,158.264 249.506,162.443 256,162.443C262.494,162.443 268.251,158.264 270.262,152.089C272.666,144.712 279.715,125.494 293.224,106.429C308.284,85.174 334.871,59.836 376,59.836C405.621,59.836 432.66,72.007 452.137,94.106C471.395,115.957 482,145.521 482,177.351C482,254.358 413.255,312.939 309.193,401.614Z" style="fill:rgb(0,128,0);fill-rule:nonzero;"/>
                                </g>
                            </g>
                        </g>
                    </g>
                </g>
            </g>
        </g>
    </g>
</svg>
