<?xml version="1.0" encoding="UTF-8" standalone="no"?>
<!DOCTYPE svg PUBLIC "-//W3C//DTD SVG 1.1//EN" "http://www.w3.org/Graphics/SVG/1.1/DTD/svg11.dtd">
<svg width="100%" height="100%" viewBox="0 0 89 89" version="1.1" xmlns="http://www.w3.org/2000/svg" xmlns:xlink="http://www.w3.org/1999/xlink" xml:space="preserve" xmlns:serif="http://www.serif.com/" style="fill-rule:evenodd;clip-rule:evenodd;stroke-linejoin:round;stroke-miterlimit:2;">
    <g>
        <path d="M49.044,24.514C49.044,16.414 55.609,9.848 63.71,9.848C71.811,9.848 78.376,16.414 78.376,24.514C78.376,32.614 71.811,39.18 63.71,39.18C55.609,39.18 49.044,32.613 49.044,24.514ZM69.932,40.18L57.488,40.18C47.134,40.18 38.711,48.604 38.711,58.957L38.711,74.18L38.75,74.416L39.8,74.744C49.68,77.83 58.266,78.861 65.331,78.861C79.132,78.861 87.131,74.925 87.625,74.675L88.605,74.177L88.709,74.178L88.709,58.958C88.71,48.604 80.287,40.18 69.932,40.18ZM25,39.18C33.1,39.18 39.666,32.614 39.666,24.514C39.666,16.414 33.1,9.848 25,9.848C16.9,9.848 10.334,16.414 10.334,24.514C10.334,32.614 16.9,39.18 25,39.18ZM35.326,74.18L35.326,58.958C35.326,52.897 37.771,47.408 41.711,43.39C38.714,41.365 35.104,40.181 31.223,40.181L18.778,40.181C8.424,40.18 0,48.604 0,58.958L0,74.18L0.039,74.416L1.09,74.744C10.969,77.83 19.555,78.861 26.621,78.861C31.114,78.861 34.98,78.441 38.184,77.871L35.762,77.113L35.326,74.18Z" style="fill:rgb(117,46,147);fill-rule:nonzero;"/>
    </g>
</svg>
